<svg xmlns="http://www.w3.org/2000/svg" viewBox="0 0 96 96" role="img" aria-label="Android">
  <defs>
    <linearGradient id="body" x1="16" y1="10" x2="84" y2="88" gradientUnits="userSpaceOnUse">
      <stop offset="0" stop-color="#9bf86f"/>
      <stop offset="0.58" stop-color="#64d987"/>
      <stop offset="1" stop-color="#34b773"/>
    </linearGradient>
    <filter id="glow" x="-40%" y="-40%" width="180%" height="180%">
      <feDropShadow dx="0" dy="0" stdDeviation="4" flood-color="#61d394" flood-opacity="0.45"/>
      <feDropShadow dx="0" dy="8" stdDeviation="10" flood-color="#000000" flood-opacity="0.32"/>
    </filter>
  </defs>
  <path d="M31.3 15.6 23.5 4.8a2.2 2.2 0 0 1 3.6-2.6l8.2 11.3A38.1 38.1 0 0 1 48 11.4c4.5 0 8.8.7 12.7 2.1l8.2-11.3a2.2 2.2 0 1 1 3.6 2.6l-7.8 10.8C76.2 20.8 84 31.3 84 43.4H12c0-12.1 7.8-22.6 19.3-27.8Z" fill="url(#body)" filter="url(#glow)"/>
  <path d="M12 47.5h72v26.4c0 8.7-7.1 15.8-15.8 15.8H27.8C19.1 89.7 12 82.6 12 73.9V47.5Z" fill="url(#body)" filter="url(#glow)"/>
  <rect x="1.5" y="49.5" width="8.5" height="31" rx="4.25" fill="#64d987"/>
  <rect x="86" y="49.5" width="8.5" height="31" rx="4.25" fill="#64d987"/>
  <circle cx="34" cy="30.5" r="3.8" fill="#07100f"/>
  <circle cx="62" cy="30.5" r="3.8" fill="#07100f"/>
  <path d="M30 89.7h9.5v5.8H30v-5.8Zm26.5 0H66v5.8h-9.5v-5.8Z" fill="#64d987"/>
</svg>
